<svg width="13" height="13" viewBox="0 0 13 13" fill="none" xmlns="http://www.w3.org/2000/svg">
<path d="M6.70752 11.3965C9.44245 11.3965 11.6621 9.17686 11.6621 6.44193C11.6621 3.707 9.44245 1.48734 6.70752 1.48734C3.97258 1.48734 1.75293 3.707 1.75293 6.44193C1.75293 9.17686 3.97258 11.3965 6.70752 11.3965ZM6.70752 2.47826C8.89744 2.47826 10.6712 4.252 10.6712 6.44193C10.6712 8.63186 8.89744 10.4056 6.70752 10.4056C4.51759 10.4056 2.74385 8.63186 2.74385 6.44193C2.74385 4.252 4.51759 2.47826 6.70752 2.47826ZM7.20297 6.44193H8.68935L6.70752 4.46009L4.72568 6.44193H6.21206V8.42376H7.20297V6.44193Z" fill="#1DBF73" style="fill:#1DBF73;fill:color(display-p3 0.1137 0.7490 0.4510);fill-opacity:1;"/>
</svg>
