<svg width="13" height="13" viewBox="0 0 13 13" fill="none" xmlns="http://www.w3.org/2000/svg">
<path d="M6.92382 1.39139C9.65876 1.39139 11.8784 3.61104 11.8784 6.34597C11.8784 9.08091 9.65876 11.3006 6.92382 11.3006C4.18889 11.3006 1.96924 9.08091 1.96924 6.34597C1.96924 3.61104 4.18889 1.39139 6.92382 1.39139ZM6.92382 10.3096C9.11375 10.3096 10.8875 8.5359 10.8875 6.34597C10.8875 4.15605 9.11375 2.38231 6.92382 2.38231C4.7339 2.38231 2.96016 4.15605 2.96016 6.34597C2.96016 8.5359 4.7339 10.3096 6.92382 10.3096ZM7.41928 6.34597H8.90566L6.92382 8.32781L4.94199 6.34597H6.42837V4.36414H7.41928V6.34597Z" fill="#FC5452" style="fill:#FC5452;fill:color(display-p3 0.9882 0.3294 0.3216);fill-opacity:1;"/>
</svg>
