<svg width="16" height="15" viewBox="0 0 16 15" fill="none" xmlns="http://www.w3.org/2000/svg">
<path d="M7.0791 3.48135L8.2682 4.96773L10.6464 2.58952" stroke="#1DBF73" style="stroke:#1DBF73;stroke:color(display-p3 0.1137 0.7490 0.4510);stroke-opacity:1;" stroke-width="1.1891" stroke-linecap="round" stroke-linejoin="round"/>
<path d="M4.10645 3.77863H4.99827M4.99827 8.23775H11.0624C11.5519 8.23775 11.9913 7.93784 12.1697 7.48205L13.3017 4.58987C13.4543 4.19994 13.1668 3.77863 12.7481 3.77863H12.1329" stroke="#1DBF73" style="stroke:#1DBF73;stroke:color(display-p3 0.1137 0.7490 0.4510);stroke-opacity:1;" stroke-width="1.1891" stroke-linecap="round" stroke-linejoin="round"/>
<path d="M2.62012 1.99498H2.77792C3.36967 1.99498 3.87138 2.43011 3.95507 3.01592L4.85247 9.29775C4.93616 9.88356 5.43786 10.3187 6.02962 10.3187H11.2411" stroke="#1DBF73" style="stroke:#1DBF73;stroke:color(display-p3 0.1137 0.7490 0.4510);stroke-opacity:1;" stroke-width="1.1891" stroke-linecap="round" stroke-linejoin="round"/>
<ellipse cx="11.241" cy="11.2105" rx="0.891826" ry="0.891826" transform="rotate(90 11.241 11.2105)" stroke="#1DBF73" style="stroke:#1DBF73;stroke:color(display-p3 0.1137 0.7490 0.4510);stroke-opacity:1;" stroke-width="1.1891" stroke-linejoin="round"/>
<ellipse cx="5.59304" cy="11.2105" rx="0.891826" ry="0.891826" transform="rotate(90 5.59304 11.2105)" stroke="#1DBF73" style="stroke:#1DBF73;stroke:color(display-p3 0.1137 0.7490 0.4510);stroke-opacity:1;" stroke-width="1.1891" stroke-linejoin="round"/>
</svg>
