<svg width="16" height="15" viewBox="0 0 16 15" fill="none" xmlns="http://www.w3.org/2000/svg">
<path d="M10.1865 6.91512L10.1865 3.34782C10.1865 2.85528 9.78724 2.45599 9.2947 2.45599L4.5383 2.45599C4.04575 2.45599 3.64647 2.85528 3.64647 3.34782L3.64647 10.4824C3.64647 10.975 4.04575 11.3742 4.5383 11.3742L8.99742 11.3742" stroke="#FF0A80" style="stroke:#FF0A80;stroke:color(display-p3 1.0000 0.0392 0.5004);stroke-opacity:1;" stroke-width="1.1891" stroke-linejoin="round"/>
<path d="M7.80859 2.45599L7.80859 8.4015" stroke="#FF0A80" style="stroke:#FF0A80;stroke:color(display-p3 1.0000 0.0392 0.5004);stroke-opacity:1;" stroke-width="1.1891"/>
<path d="M5.72754 4.83417L5.72754 5.32963" stroke="#FF0A80" style="stroke:#FF0A80;stroke:color(display-p3 1.0000 0.0392 0.5004);stroke-opacity:1;" stroke-width="1.1891" stroke-linecap="round"/>
<path d="M9.29479 13.1579V11.9688L7.59247 9.53691C7.3735 9.2241 7.4107 8.79922 7.6807 8.52922V8.52922C7.93162 8.2783 8.31944 8.22637 8.62754 8.40243L10.1866 9.29333V4.53693L11.2657 5.49609C12.2811 6.3987 12.8621 7.69246 12.8621 9.05107V13.1579" stroke="#FF0A80" style="stroke:#FF0A80;stroke:color(display-p3 1.0000 0.0392 0.5004);stroke-opacity:1;" stroke-width="1.1891" stroke-linecap="round" stroke-linejoin="round"/>
</svg>
