<svg width="16" height="15" viewBox="0 0 16 15" fill="none" xmlns="http://www.w3.org/2000/svg">
<path d="M10.1865 6.45411L10.1865 2.88681C10.1865 2.39426 9.78724 1.99498 9.2947 1.99498L4.5383 1.99498C4.04575 1.99498 3.64647 2.39426 3.64647 2.88681L3.64647 10.0214C3.64647 10.514 4.04575 10.9132 4.5383 10.9132L8.99742 10.9132" stroke="#FF9F0A" style="stroke:#FF9F0A;stroke:color(display-p3 1.0000 0.6235 0.0392);stroke-opacity:1;" stroke-width="1.1891" stroke-linejoin="round"/>
<path d="M7.80859 1.99498L7.80859 7.94048" stroke="#FF9F0A" style="stroke:#FF9F0A;stroke:color(display-p3 1.0000 0.6235 0.0392);stroke-opacity:1;" stroke-width="1.1891"/>
<path d="M5.72754 4.37317L5.72754 4.86863" stroke="#FF9F0A" style="stroke:#FF9F0A;stroke:color(display-p3 1.0000 0.6235 0.0392);stroke-opacity:1;" stroke-width="1.1891" stroke-linecap="round"/>
<path d="M9.29479 12.6969V11.5078L7.59247 9.07588C7.3735 8.76307 7.4107 8.3382 7.6807 8.0682V8.0682C7.93162 7.81727 8.31944 7.76534 8.62754 7.9414L10.1866 8.8323V4.0759L11.2657 5.03506C12.2811 5.93767 12.8621 7.23143 12.8621 8.59004V12.6969" stroke="#FF9F0A" style="stroke:#FF9F0A;stroke:color(display-p3 1.0000 0.6235 0.0392);stroke-opacity:1;" stroke-width="1.1891" stroke-linecap="round" stroke-linejoin="round"/>
</svg>
