<svg width="13" height="13" viewBox="0 0 13 13" fill="none" xmlns="http://www.w3.org/2000/svg">
<path d="M8.16535 5.10659H3.43347C2.74939 5.10659 2.19482 4.55203 2.19482 3.86794C2.19482 3.18385 2.74939 2.62929 3.43347 2.62929H8.16535M5.14255 10.5566H9.87443C10.5585 10.5566 11.1131 10.0021 11.1131 9.31799C11.1131 8.6339 10.5585 8.07934 9.87443 8.07934H5.14255M2.19482 9.31799C2.19482 10.2757 2.97121 11.0521 3.92893 11.0521C4.88665 11.0521 5.66303 10.2757 5.66303 9.31799C5.66303 8.36027 4.88665 7.58388 3.92893 7.58388C2.97121 7.58388 2.19482 8.36027 2.19482 9.31799ZM11.1131 3.86794C11.1131 4.82566 10.3367 5.60205 9.37897 5.60205C8.42125 5.60205 7.64487 4.82566 7.64487 3.86794C7.64487 2.91022 8.42125 2.13383 9.37897 2.13383C10.3367 2.13383 11.1131 2.91022 11.1131 3.86794Z" stroke="#344054" style="stroke:#344054;stroke:color(display-p3 0.2039 0.2510 0.3294);stroke-opacity:1;" stroke-width="0.990917" stroke-linecap="round" stroke-linejoin="round"/>
</svg>
